<?xml version="1.0" encoding="UTF-8" standalone="no"?>
<!DOCTYPE svg PUBLIC "-//W3C//DTD SVG 1.1//EN" "http://www.w3.org/Graphics/SVG/1.1/DTD/svg11.dtd">
<svg width="100%" height="100%" viewBox="0 0 602 522" version="1.1" xmlns="http://www.w3.org/2000/svg" xmlns:xlink="http://www.w3.org/1999/xlink" xml:space="preserve" xmlns:serif="http://www.serif.com/" style="fill-rule:evenodd;clip-rule:evenodd;stroke-linejoin:round;stroke-miterlimit:1.41421;">
    <g transform="matrix(1,0,0,1,-263.5,-144.688)">
        <g transform="matrix(1,0,0,1,0,363.4)">
            <g>
                <g transform="matrix(1,0,0,1,0,-363.4)">
                    <path d="M553.889,391.445M553.889,391.445C515.635,436.193 454.912,471.289 391.125,488.271C380.89,490.996 370.562,493.238 360.225,494.984C388.159,524.463 423.74,555.975 471.545,594.166C485.875,605.614 498.598,615.585 516.029,629.023C520.211,624.988 524.01,620.675 527.463,616.107C542.502,596.211 551.01,571.227 555.338,543.637C562.928,495.243 557.453,439.335 553.889,391.445ZM857.779,249.756C753.732,256.394 648.384,314.448 568.193,374.615C578.693,430.437 627.202,474.036 687.266,504.715C703.205,512.856 719.914,520.05 736.822,526.313C752.175,512.036 765.123,498.925 776.662,486.115C820.202,437.782 848.194,390.035 859.582,344.678C868.031,311.027 867.22,278.565 857.779,249.756ZM421.449,144.801C432.99,144.834 444.563,146.108 455.969,148.654C493.948,157.132 527.319,179.113 549.566,209.553C556.637,227.239 561.54,248.732 563.623,270.967C566.671,303.503 563.822,337.622 554.898,363.57C494.113,359.198 435.356,315.729 395.92,259.604C374.145,228.613 358.49,193.959 351.281,160.57C373.329,150.092 397.318,144.732 421.449,144.801Z" style="fill:rgb(255,170,170);"/>
                </g>
                <g transform="matrix(1,0,0,1,0,-363.4)">
                    <path d="M571.357,424.34C574.249,463.738 576.358,506.437 570.158,545.963C565.58,575.15 556.461,602.621 539.43,625.152C535.958,629.745 532.149,634.116 528,638.244C536.699,644.916 546.592,652.478 558.541,661.592L564.344,666.018L579.479,654.494C644.918,604.661 690.254,568.242 724.369,537.672C709.435,531.872 694.681,525.344 680.443,518.072C634.943,494.832 594.474,463.751 571.357,424.34ZM337.326,168.047C337.182,168.134 337.035,168.216 336.891,168.303C295.297,193.425 269.682,232.992 264.193,280.592C263.018,290.789 263.391,313.445 264.9,323.486C269.924,356.902 282.241,388.46 303.627,422.711C316.121,442.721 330.429,461.881 347.984,481.66C361.048,479.902 374.205,477.255 387.266,473.777C450.253,457.008 510.371,421.12 545.74,377.721C481.832,369.949 423.327,324.697 383.646,268.225C361.761,237.078 345.421,202.354 337.326,168.047ZM707.187,144.689C748.343,144.506 790.036,161.135 820.377,190.322C833.917,203.348 844.495,218.398 851.994,234.924C751.523,242.594 652.032,295.532 573.811,351.893C579.805,326.524 581.182,297.585 578.557,269.566C577.057,253.564 574.29,237.883 570.203,223.371C595.821,178.895 641.456,150.093 694.445,145.291C698.678,144.907 702.93,144.708 707.188,144.689Z" style="fill:rgb(255,85,85);"/>
                </g>
            </g>
        </g>
    </g>
</svg>
